<svg width="512" height="288" xmlns="http://www.w3.org/2000/svg">
  <defs>
    <linearGradient id="grad" x1="0%" y1="0%" x2="100%" y2="0%">
      <stop offset="0%" style="stop-color:#13778b; stop-opacity:1" />
      <stop offset="100%" style="stop-color:#36c3f2; stop-opacity:1" />
    </linearGradient>
  </defs>
  <rect width="100%" height="100%" fill="url(#grad)" />
  <g fill="white">
    <circle cx="50" cy="40" r="1.5" />
    <circle cx="100" cy="120" r="1" />
    <circle cx="200" cy="70" r="1.2" />
    <circle cx="300" cy="180" r="1.3" />
    <circle cx="400" cy="60" r="1.1" />
    <circle cx="460" cy="140" r="1.4" />
    <circle cx="250" cy="240" r="1.2" />
    <circle cx="150" cy="160" r="1" />
    <circle cx="350" cy="90" r="1.3" />
    <circle cx="480" cy="220" r="1.2" />
  </g>
  <g stroke="white" stroke-width="1" stroke-linecap="round">
    <line x1="60" y1="70" x2="60" y2="78" />
    <line x1="56" y1="74" x2="64" y2="74" />
    <line x1="180" y1="60" x2="180" y2="68" />
    <line x1="176" y1="64" x2="184" y2="64" />
    <line x1="320" y1="130" x2="320" y2="138" />
    <line x1="316" y1="134" x2="324" y2="134" />
    <line x1="420" y1="100" x2="420" y2="108" />
    <line x1="416" y1="104" x2="424" y2="104" />
    <line x1="220" y1="190" x2="220" y2="198" />
    <line x1="216" y1="194" x2="224" y2="194" />
    <line x1="100" y1="220" x2="100" y2="228" />
    <line x1="96" y1="224" x2="104" y2="224" />
    <line x1="360" y1="50" x2="360" y2="58" />
    <line x1="356" y1="54" x2="364" y2="54" />
  </g>
</svg>
